<svg xmlns="http://www.w3.org/2000/svg" width="21.33" height="21.071" viewBox="0 0 21.33 21.071">
  <path id="Path_26" data-name="Path 26" d="M23.165-87.5a10.729,10.729,0,0,0-7.541,3.086,10.467,10.467,0,0,0-3.124,7.45,10.468,10.468,0,0,0,3.124,7.45,10.728,10.728,0,0,0,7.541,3.086,10.729,10.729,0,0,0,7.541-3.086,10.467,10.467,0,0,0,3.124-7.45,10.468,10.468,0,0,0-3.124-7.45A10.728,10.728,0,0,0,23.165-87.5Zm0,19.9a9.54,9.54,0,0,1-6.7-2.743,9.308,9.308,0,0,1-2.776-6.622,9.308,9.308,0,0,1,2.776-6.622,9.54,9.54,0,0,1,6.7-2.743,9.54,9.54,0,0,1,6.7,2.743,9.308,9.308,0,0,1,2.776,6.622,9.315,9.315,0,0,1-2.78,6.619,9.547,9.547,0,0,1-6.7,2.746Zm5.925-8.78a.583.583,0,0,1-.173.415.6.6,0,0,1-.419.171H22.573a.6.6,0,0,1-.42-.171.583.583,0,0,1-.173-.415V-83.4a.589.589,0,0,1,.593-.585.589.589,0,0,1,.592.585v6.439H28.5a.6.6,0,0,1,.419.171.582.582,0,0,1,.173.414Z" transform="translate(-12.5 87.5)" fill="#b2b2b2"/>
</svg>
