<?xml version="1.0" encoding="utf-8"?>
<!-- Generator: Adobe Illustrator 24.3.0, SVG Export Plug-In . SVG Version: 6.00 Build 0)  -->
<svg version="1.1" id="Layer_1" xmlns="http://www.w3.org/2000/svg" xmlns:xlink="http://www.w3.org/1999/xlink" x="0px" y="0px"
	 viewBox="0 0 22.1 12.9" style="enable-background:new 0 0 22.1 12.9;" xml:space="preserve">
<style type="text/css">
	.st0{fill:#FFFFFF;stroke:#FFFFFF;}
</style>
<g id="Group_96" transform="translate(-1554.237 -443.535)">
	<rect id="Rectangle_10" x="1554.7" y="449.1" class="st0" width="19.7" height="1.7"/>
	<path id="Path_16" class="st0" d="M1568.9,455.9c-0.3,0-0.5-0.1-0.7-0.4c-0.3-0.4-0.2-0.9,0.2-1.2l5.5-4c0.1-0.1,0.2-0.2,0.2-0.3
		c0-0.1-0.1-0.3-0.2-0.3l-5.5-4c-0.4-0.3-0.5-0.8-0.2-1.2c0.3-0.4,0.8-0.5,1.2-0.2l5.5,4c0.9,0.6,1.2,1.9,0.6,2.8
		c-0.2,0.2-0.4,0.4-0.6,0.6l-5.5,4C1569.3,455.8,1569.1,455.9,1568.9,455.9L1568.9,455.9z"/>
</g>
</svg>
