<svg xmlns="http://www.w3.org/2000/svg" width="22.122" height="12.863" viewBox="0 0 22.122 12.863">
  <g id="Group_96" data-name="Group 96" transform="translate(-1554.237 -443.535)">
    <rect id="Rectangle_10" data-name="Rectangle 10" width="19.667" height="1.728" transform="translate(1554.737 449.141)" fill="#bf1826" stroke="#bf1826" stroke-width="1"/>
    <path id="Path_16" data-name="Path 16" d="M1596.015,455.9a.871.871,0,0,1-.7-.358.86.86,0,0,1,.192-1.2l5.506-3.99a.448.448,0,0,0,.222-.317.456.456,0,0,0-.219-.32l-5.511-4.034a.866.866,0,0,1,1.022-1.4l5.512,4.034a2.047,2.047,0,0,1-.007,3.433l-5.505,3.99a.874.874,0,0,1-.51.165Z" transform="translate(-27.105 0)" fill="#bf1826" stroke="#bf1826" stroke-width="1"/>
  </g>
</svg>
